<?xml version="1.0" ?><svg id="Layer_1" style="enable-background:new 0 0 66 66;" version="1.1" viewBox="0 0 66 66" xml:space="preserve" xmlns="http://www.w3.org/2000/svg" xmlns:xlink="http://www.w3.org/1999/xlink"><g><path d="M61.2,28.3c-0.1-0.5-0.6-0.9-1.1-0.8l-9.4,1.4c-0.3,0-0.5,0.2-0.7,0.4c-0.2,0.2-0.2,0.5-0.2,0.7l0,0.2   c-1-0.1-2.1-0.1-3.2-0.1c-10.4-1.8-17.8-0.6-22.3,3.7c-1.6-0.5-3.7-0.8-5-1c-0.1-0.3-0.3-0.7-0.7-0.8L2.3,27   c-0.5-0.2-1.1,0.1-1.3,0.6c-0.2,0.5,0.1,1.1,0.7,1.3l15.5,4.9l-6.2,21.5l-7.7-2.4c-0.5-0.2-1.1,0.1-1.2,0.7   c-0.2,0.5,0.1,1.1,0.7,1.2l8.7,2.7c0.1,0,0.2,0,0.3,0c0.2,0,0.3,0,0.5-0.1c0.2-0.1,0.4-0.3,0.5-0.6l0.3-1.1   c3.8,2.1,7.5,3.3,11.6,4.7l1.8,0.6c0,0,0,0,0,0l7.9,2.6c0.9,0.3,1.9,0.5,2.8,0.5c1.5,0,2.8-0.5,3.2-1.8c0.1-0.5,0.2-1,0.1-1.5   c0-0.2-0.1-0.4-0.1-0.6c0.2,0,0.4,0,0.6,0c0.3,0,0.6,0,0.8,0c1.8-0.2,3.1-1.1,3.5-2.3c0.3-0.9,0.2-1.9-0.2-2.7   c0.1,0,0.3-0.1,0.4-0.1c0.6-0.2,1.3-0.3,2.1-0.5c1.9-0.5,4.1-1,5.8-1.6l0.2,1.4c0.1,0.5,0.5,0.8,1,0.8c0.1,0,0.1,0,0.2,0l9.4-1.4   c0.3,0,0.5-0.2,0.7-0.4C65,53,65,52.8,65,52.5L61.2,28.3z M47.8,52.2c0-0.2,0.1-0.5,0.1-0.7c0-0.1,0-0.2,0-0.3   c-0.1-0.6-0.3-1.1-0.6-1.6c1-0.4,1.8-1.2,2.2-2.2c0.1-0.5,0.2-1,0.1-1.4c-0.2-1.6-1.4-3-3.2-3.5l-9.5-2.2c-1-0.2-1.9-0.6-2.8-1.2   l-0.4-0.2l4.2-0.6c0.5-0.1,0.9-0.6,0.8-1.1c-0.1-0.5-0.6-0.9-1.1-0.8l-6.9,1c0,0,0,0,0,0c0,0-0.1,0-0.1,0c-0.1,0-0.2,0.1-0.2,0.1   c0,0-0.1,0-0.1,0c0,0,0,0-0.1,0l-5,4.4c-0.5,0.4-1.2,0.4-1.8,0c-0.5-0.4-0.7-1.1-0.4-1.8c0.6-1.7,1.4-3.1,2.5-4.3   c3.9-4.1,11-5.3,21-3.5c0,0,0.1,0,0.1,0c0,0,0.1,0,0.1,0c1.2,0,2.4,0,3.6,0.2l2.9,18.5C51.6,51.3,49.6,51.8,47.8,52.2z M58.6,51.5   c0,0-0.1,0-0.1,0c-0.5,0-0.9-0.4-1-0.8L57.2,49c-0.1-0.5,0.3-1,0.8-1.1c0.5-0.1,1,0.3,1.1,0.8l0.3,1.7C59.5,51,59.1,51.5,58.6,51.5   z"/><path d="M59.4,50.4c0.1,0.6-0.3,1.1-0.8,1.1c0,0-0.1,0-0.1,0c-0.5,0-0.9-0.4-1-0.8L57.2,49c-0.1-0.5,0.3-1,0.8-1.1   c0.5-0.1,1,0.3,1.1,0.8L59.4,50.4z"/><path d="M13.7,37.7c0.1,0,0.2,0,0.2,0c0.4,0,0.9-0.3,1-0.8c0.1-0.5-0.2-1.1-0.7-1.2l-4.2-1.1c-0.5-0.1-1.1,0.2-1.2,0.7   c-0.1,0.5,0.2,1.1,0.7,1.2L13.7,37.7z"/><path d="M19.4,20.3c-1.1,0-2.1-0.9-2.1-2.1c0-0.6-0.4-1-1-1c-0.6,0-1,0.4-1,1c0,1.9,1.3,3.5,3.1,4v1.6c0,0.6,0.4,1,1,1   c0.6,0,1-0.4,1-1v-1.6c1.8-0.5,3.1-2,3.1-3.9c0-2.3-1.8-4.1-4.1-4.1c0,0,0,0,0,0c-1.1,0-2-0.9-2-2.1c0-1.1,0.9-2.1,2.1-2.1   c1.1,0,2.1,0.9,2.1,2.1c0,0.6,0.4,1,1,1c0.6,0,1-0.4,1-1c0-1.9-1.3-3.5-3.1-3.9V6.6c0-0.6-0.4-1-1-1c-0.6,0-1,0.4-1,1v1.6   c-1.8,0.4-3.1,2-3.1,3.9c0,2.2,1.8,4.1,4.1,4.1c0,0,0,0,0,0c1.1,0,2,0.9,2,2.1C21.5,19.4,20.6,20.3,19.4,20.3z"/><path d="M19.4,2C12.2,2,6.3,7.9,6.3,15.2c0,7.3,5.9,13.2,13.2,13.2s13.2-5.9,13.2-13.2C32.6,7.9,26.7,2,19.4,2z M19.4,26.3   c-6.2,0-11.2-5-11.2-11.2C8.3,9,13.3,4,19.4,4c6.1,0,11.2,5,11.2,11.2C30.6,21.3,25.6,26.3,19.4,26.3z"/><path d="M47.9,2.3C41.3,2.3,36,7.6,36,14.2C36,20.7,41.3,26,47.9,26c6.5,0,11.8-5.3,11.8-11.8C59.7,7.6,54.4,2.3,47.9,2.3z    M47.8,13.2c2.1,0,3.8,1.7,3.8,3.8c0,1.7-1.2,3.1-2.7,3.6v1.3c0,0.6-0.4,1-1,1c-0.5,0-1-0.4-1-1v-1.3c-1.6-0.4-2.8-1.9-2.8-3.6   c0-0.6,0.4-1,1-1c0.6,0,1,0.4,1,1c0,1,0.8,1.8,1.8,1.8c1,0,1.8-0.8,1.8-1.8c0-1-0.8-1.7-1.7-1.8c-2.1,0-3.8-1.7-3.8-3.7   c0-1.7,1.2-3.2,2.8-3.6V6.5c0-0.5,0.5-1,1-1c0.6,0,1,0.5,1,1v1.3c1.6,0.4,2.8,1.9,2.8,3.6c0,0.6-0.4,1-1,1c-0.6,0-1-0.4-1-1   c0-1-0.8-1.8-1.8-1.8c-1,0-1.8,0.8-1.8,1.8C46.1,12.4,46.9,13.2,47.8,13.2z"/></g></svg>