<?xml version="1.0" ?><svg id="Layer_1" style="enable-background:new 0 0 66 66;" version="1.1" viewBox="0 0 66 66" xml:space="preserve" xmlns="http://www.w3.org/2000/svg" xmlns:xlink="http://www.w3.org/1999/xlink"><g><path d="M9.8,1.1C4.9,1.1,1,5,1,9.9c0,4.9,4,8.8,8.8,8.8c4.9,0,8.8-4,8.8-8.8C18.6,5,14.7,1.1,9.8,1.1z M14.7,7.8l-5.5,5.5   c-0.2,0.2-0.4,0.3-0.7,0.3c-0.3,0-0.5-0.1-0.7-0.3L5,10.6c-0.4-0.4-0.4-1,0-1.4c0.4-0.4,1-0.4,1.4,0l2.1,2.1l4.8-4.8   c0.4-0.4,1-0.4,1.4,0C15.1,6.8,15.1,7.4,14.7,7.8z"/><path d="M62.6,24.9c-0.5-0.2-0.9-0.6-1-1.2c-0.1-0.6,0.2-1.1,0.7-1.4c1.4-0.8,2.1-2.4,1.6-4c-0.5-1.6-2-2.5-3.6-2.3   c-0.6,0.1-1.1-0.2-1.4-0.7c-0.3-0.5-0.2-1.1,0.1-1.5c1-1.3,0.9-3-0.2-4.3c-1.1-1.2-2.8-1.5-4.2-0.7c-0.5,0.3-1.1,0.3-1.5-0.1   c-0.5-0.3-0.7-0.9-0.5-1.4c0.4-1.6-0.4-3.2-1.9-3.8c-1.5-0.7-3.2-0.2-4.1,1.1c-0.3,0.5-0.9,0.7-1.4,0.6c-0.6-0.1-1-0.5-1.1-1.1   c-0.3-1.6-1.7-2.7-3.3-2.7c-0.8,0-1.6,0.3-2.2,0.8c-0.6,0.5-1,1.1-1.2,2c-0.1,0.6-0.5,1-1.1,1.1c-0.5,0.1-1.1-0.1-1.4-0.6   c-1-1.3-2.6-1.8-4.1-1.1c-1.5,0.7-2.3,2.2-1.9,3.8C29,8,28.8,8.5,28.3,8.8c-0.5,0.3-1,0.4-1.5,0.1c-1.4-0.8-3.1-0.6-4.2,0.7   c-1.1,1.2-1.2,2.9-0.2,4.3c0.3,0.5,0.4,1,0.1,1.5c-0.3,0.5-0.8,0.8-1.4,0.7c-1.6-0.2-3.1,0.8-3.6,2.3s0.1,3.2,1.5,4   c0.5,0.3,0.8,0.8,0.7,1.4c-0.1,0.6-0.4,1-1,1.2c-1.6,0.5-2.5,1.9-2.4,3.6c0.2,1.6,1.4,2.9,3.1,3c0.6,0.1,1,0.4,1.2,1   c0.2,0.5,0,1.1-0.4,1.5c-1.2,1.1-1.5,2.8-0.7,4.2c0.8,1.4,2.4,2,4,1.5c0.5-0.2,1.1,0,1.5,0.4c0.4,0.4,0.5,1,0.2,1.5   c-0.7,1.5-0.2,3.2,1.1,4.1c0.7,0.5,1.5,0.7,2.3,0.6v17.6c0,0.4,0.2,0.7,0.5,0.9c0.2,0.1,0.3,0.1,0.5,0.1c0.2,0,0.3,0,0.5-0.1   l10.6-5.7l10.6,5.7c0.2,0.1,0.3,0.1,0.5,0.1c0.2,0,0.4,0,0.5-0.1c0.3-0.2,0.5-0.5,0.5-0.9V46.3c0.8,0.1,1.6-0.1,2.3-0.6   c1.3-1,1.8-2.6,1.1-4.1C55.9,41,56,40.4,56.4,40s0.9-0.6,1.5-0.4c1.6,0.5,3.2-0.1,4-1.5c0.8-1.4,0.5-3.1-0.7-4.2   c-0.4-0.4-0.6-0.9-0.4-1.5c0.2-0.5,0.6-0.9,1.2-1c1.6-0.2,2.9-1.4,3-3C65.2,26.8,64.2,25.4,62.6,24.9z M61.7,29.5   c-1.4,0.1-2.5,1-2.9,2.3c-0.4,1.3-0.1,2.7,1,3.6c0.6,0.6,0.6,1.3,0.3,1.7c-0.3,0.5-0.8,0.9-1.6,0.6c-1.3-0.4-2.7-0.1-3.6,1   c-0.9,1-1.1,2.4-0.6,3.7c0.4,0.8,0,1.4-0.4,1.7c-0.4,0.3-1.1,0.5-1.8-0.1c-1-0.9-2.4-1.1-3.7-0.6c-1.2,0.5-2,1.8-2,3.1   c0,0.8-0.6,1.2-1.1,1.4c-0.5,0.1-1.2,0-1.6-0.8c-0.5-1.2-1.7-2-3.1-2c-1.4,0-2.6,0.8-3.1,2c-0.3,0.8-1,0.9-1.6,0.8   c-0.5-0.1-1.1-0.5-1.1-1.4c0-1.4-0.8-2.6-2-3.1c-1.2-0.6-2.6-0.3-3.6,0.5c-0.2,0.1-0.3,0.2-0.4,0.3c-0.5,0.2-1,0.1-1.4-0.1   c-0.4-0.3-0.8-0.9-0.4-1.7c0.6-1.2,0.4-2.7-0.6-3.7c-0.9-1-2.3-1.4-3.6-1c-0.8,0.3-1.4-0.1-1.6-0.6c-0.3-0.5-0.3-1.2,0.3-1.7   c1-0.9,1.4-2.3,1-3.6c-0.4-1.3-1.5-2.2-2.9-2.3c-0.8-0.1-1.2-0.7-1.2-1.2c0-0.5,0.2-1.2,1-1.5c1.3-0.4,2.2-1.5,2.4-2.9   c0.1-1.4-0.5-2.6-1.7-3.3c-0.7-0.4-0.8-1.1-0.6-1.6c0.2-0.5,0.6-1,1.5-0.9c1.4,0.1,2.6-0.5,3.3-1.7c0.7-1.2,0.6-2.6-0.2-3.7   c-0.5-0.7-0.3-1.3,0.1-1.8c0.4-0.4,1-0.7,1.7-0.3c1.2,0.7,2.6,0.6,3.7-0.2c1.1-0.8,1.6-2.1,1.3-3.5c-0.2-0.8,0.3-1.3,0.8-1.6   c0.5-0.2,1.2-0.2,1.7,0.5c0.8,1.1,2.1,1.6,3.5,1.3c1.3-0.3,2.3-1.3,2.6-2.6c0.2-0.8,0.8-1.1,1.4-1.1c0.5,0,1.2,0.3,1.4,1.1   c0.3,1.3,1.3,2.3,2.6,2.6C46,7.5,47.3,7,48.1,5.9c0.5-0.7,1.2-0.7,1.7-0.5c0.5,0.2,1,0.8,0.8,1.6c-0.3,1.3,0.2,2.7,1.3,3.5   c1.1,0.8,2.5,0.9,3.7,0.2c0.7-0.4,1.4-0.1,1.7,0.3c0.4,0.4,0.6,1.1,0.1,1.8c-0.8,1.1-0.9,2.5-0.2,3.7c0.7,1.2,2,1.8,3.3,1.7   c0.8-0.1,1.3,0.4,1.5,0.9c0.2,0.5,0.1,1.2-0.6,1.6c-1.2,0.7-1.8,1.9-1.7,3.3c0.1,1.4,1,2.5,2.3,2.9c0.8,0.2,1,0.9,1,1.5   C62.9,28.8,62.6,29.4,61.7,29.5z"/><path d="M40.7,9.9C32,9.9,24.9,17,24.9,25.7c0,8.7,7.1,15.8,15.8,15.8c8.7,0,15.8-7.1,15.8-15.8C56.4,17,49.4,9.9,40.7,9.9z    M41.3,34.8C41.1,35,40.9,35,40.7,35c-0.2,0-0.3,0-0.4-0.1c-0.1,0-0.1-0.1-0.2-0.1c-6.4-5.1-9.2-9-8.7-11.9c0,0,0-0.1,0.1-0.1   c0.4-2.6,2.6-4.5,5.3-4.5c1.5,0,3,0.7,4,1.8c1-1.1,2.4-1.8,4-1.8c2.6,0,4.9,1.9,5.3,4.5c0,0,0,0.1,0,0.1   C50.5,25.9,47.7,29.8,41.3,34.8z"/></g></svg>