<?xml version="1.0" ?><svg id="Layer_1" style="enable-background:new 0 0 66 66;" version="1.1" viewBox="0 0 66 66" xml:space="preserve" xmlns="http://www.w3.org/2000/svg" xmlns:xlink="http://www.w3.org/1999/xlink"><g><path d="M48,55.6c-0.6-1.2-1.9-2-3.3-1.9c0,0-0.1,0-0.1,0l-11.3,2c0-0.1,0-0.1,0.1-0.2c0.2-1.6-0.7-3-2.3-3.5   c-6.9-1.8-15.4-2.1-21.8-1c-0.2-0.3-0.6-0.5-1-0.4l-6.1,1.2c-0.3,0-0.5,0.2-0.6,0.4c-0.1,0.2-0.2,0.5-0.1,0.8l2.4,11.3   c0.1,0.5,0.5,0.8,1,0.8c0.1,0,0.1,0,0.2,0l6.1-1.2c0.2,0,0.3-0.1,0.5-0.3l6.2,0.9c2.5,0.4,4.9,0.5,7.4,0.5c7.3,0,14.5-1.6,21.2-4.7   c0.9-0.4,1.5-1.1,1.8-2C48.5,57.4,48.4,56.4,48,55.6z M5.5,62.8l-2-9.3l4.2-0.8l2,9.3L5.5,62.8z"/><path d="M64.6,13.1L62.3,1.8c-0.1-0.5-0.6-0.9-1.2-0.8L55,2.2c-0.2,0-0.3,0.1-0.5,0.3l-6.2-0.9c-9.8-1.4-19.7,0-28.7,4.1   c-0.9,0.4-1.5,1.1-1.8,2c-0.3,0.9-0.2,1.9,0.2,2.7c0.6,1.2,1.8,1.9,3.1,1.9h0.2c0,0,0.1,0,0.1,0l11.3-1.9c0,0.1,0,0.1-0.1,0.2   c-0.2,1.6,0.7,3,2.2,3.5c4.3,1.1,9.2,1.7,13.8,1.7c2.8,0,5.5-0.2,8-0.6c0.2,0.2,0.5,0.4,0.8,0.4c0.1,0,0.1,0,0.2,0l6.1-1.2   c0.3-0.1,0.5-0.2,0.6-0.4C64.7,13.6,64.7,13.4,64.6,13.1z M35.5,12.2c-0.6-0.2-0.9-0.7-0.8-1.3c0.1-0.6,0.7-1.1,1.3-1   c0,0,0.1,0,0.1,0l8.9,0.3c0.6,0,1-0.4,1-1c0-0.6-0.4-1-1-1l-8.9-0.2c-0.3-0.1-0.7,0-1,0c-0.1,0-0.1,0-0.2,0l-13.9,2.4   c-0.6,0-1.1-0.3-1.4-0.8c-0.2-0.4-0.2-0.8-0.1-1.2c0.1-0.4,0.4-0.7,0.8-0.9c8.6-4,18.1-5.3,27.5-4l6.4,0.9l1.8,8.7   C50.1,14.2,42.1,13.8,35.5,12.2z"/><path d="M44.4,22.9H34c1.9-1.4,2.8-3.2,2-4.5c-0.9-1.6-3.5-1.7-6.3-0.1c-0.8,0.4-1.4,0.9-2,1.4c-0.2-0.7-0.5-1.4-0.9-2.1   C26,16.2,25,15.1,24,14.4c-1.2-0.8-2.4-1-3.3-0.5c-0.9,0.5-1.4,1.6-1.2,3.1c0.1,1.2,0.6,2.6,1.3,3.9c0.4,0.7,0.9,1.4,1.4,1.9H10.3   c-0.6,0-1,0.4-1,1v5.1c0,0.5,0.4,1,1,1h1.9v17.3c0,0.5,0.4,1,1,1h28.3c0.6,0,1-0.5,1-1V30.1h1.9c0.6,0,1-0.5,1-1v-5.1   C45.4,23.4,45,22.9,44.4,22.9z M22.2,24.9h3.5c0,0,0,0,0,0s0,0,0,0h6.8v3.1H22.2V24.9z M23.4,46.4h-9.1V30.1h9.1V46.4z M40.6,46.4   h-9.1V30.1h9.1V46.4z"/></g></svg>